<svg width="64" height="64" viewBox="0 0 64 64" fill="none" xmlns="http://www.w3.org/2000/svg">
<path d="M32 0C24.2892 0 16.5783 0 8.99598 0C2.31325 0.129032 0 2.32258 0 8.90323C0 24.2581 0 39.7419 0 55.0968C0 61.5484 2.44177 64 8.86747 64C24.2892 64 39.5823 64 55.004 64C61.4297 64 63.8715 61.4194 63.8715 55.0968C63.8715 39.7419 63.8715 24.2581 63.8715 8.90323C63.8715 2.32258 61.5582 0.129032 55.004 0C47.4217 0 39.7108 0 32 0ZM32 56.7742C25.3173 56.7742 18.6345 56.6452 12.0803 56.7742C8.99598 56.9032 7.58233 55.871 7.71084 52.6452C7.83936 42.5806 7.83936 32.5161 7.71084 22.4516C7.71084 19.3548 8.61044 18.0645 11.8233 18.0645C25.3173 18.1936 38.6827 18.1936 52.1767 18.0645C55.3896 18.0645 56.4177 19.3548 56.2892 22.4516C56.1606 32.3871 56.1606 42.3226 56.2892 52.2581C56.4177 56 54.8755 56.9032 51.5341 56.7742C44.9799 56.6452 38.5542 56.7742 32 56.7742Z" fill="#8EC640"/>
</svg>
