<svg width="836" height="2506" viewBox="0 0 836 2506" fill="none" xmlns="http://www.w3.org/2000/svg">
<circle cx="570" cy="1835" r="266" fill="#D9D9D9"/>
<ellipse cx="331.5" cy="57" rx="19.5" ry="19" fill="#D9D9D9"/>
<ellipse cx="375.5" cy="102" rx="19.5" ry="19" fill="#D9D9D9"/>
<ellipse cx="272.5" cy="19" rx="19.5" ry="19" fill="#D9D9D9"/>
<ellipse cx="373.5" cy="170" rx="19.5" ry="19" fill="#D9D9D9"/>
<ellipse cx="334.5" cy="227" rx="19.5" ry="19" fill="#D9D9D9"/>
<ellipse cx="292.5" cy="265" rx="19.5" ry="19" fill="#D9D9D9"/>
<ellipse cx="238.5" cy="303" rx="19.5" ry="19" fill="#D9D9D9"/>
<ellipse cx="180.5" cy="335" rx="19.5" ry="19" fill="#D9D9D9"/>
<ellipse cx="116.5" cy="373" rx="19.5" ry="19" fill="#D9D9D9"/>
<ellipse cx="58.5" cy="406" rx="19.5" ry="19" fill="#D9D9D9"/>
<ellipse cx="25.5" cy="470" rx="19.5" ry="19" fill="#D9D9D9"/>
<ellipse cx="19.5" cy="534" rx="19.5" ry="19" fill="#D9D9D9"/>
<ellipse cx="38.5" cy="598" rx="19.5" ry="19" fill="#D9D9D9"/>
<ellipse cx="77.5" cy="636" rx="19.5" ry="19" fill="#D9D9D9"/>
<ellipse cx="154.149" cy="1124.05" rx="19.5" ry="19" transform="rotate(-57.3432 154.149 1124.05)" fill="#D9D9D9"/>
<ellipse cx="181.093" cy="1187.64" rx="19.5" ry="19" transform="rotate(-57.3432 181.093 1187.64)" fill="#D9D9D9"/>
<ellipse cx="190.423" cy="1243.5" rx="19.5" ry="19" transform="rotate(-57.3432 190.423 1243.5)" fill="#D9D9D9"/>
<ellipse cx="193.277" cy="1309.47" rx="19.5" ry="19" transform="rotate(-57.3432 193.277 1309.47)" fill="#D9D9D9"/>
<ellipse cx="211.519" cy="1384.67" rx="19.5" ry="19" transform="rotate(-57.3432 211.519 1384.67)" fill="#D9D9D9"/>
<ellipse cx="270.519" cy="1425.67" rx="19.5" ry="19" transform="rotate(-57.3432 270.519 1425.67)" fill="#D9D9D9"/>
<ellipse cx="329.519" cy="1437.67" rx="19.5" ry="19" transform="rotate(-57.3432 329.519 1437.67)" fill="#D9D9D9"/>
<ellipse cx="386.519" cy="1458.67" rx="19.5" ry="19" transform="rotate(-57.3432 386.519 1458.67)" fill="#D9D9D9"/>
<ellipse cx="445.519" cy="1478.67" rx="19.5" ry="19" transform="rotate(-57.3432 445.519 1478.67)" fill="#D9D9D9"/>
<ellipse cx="493.519" cy="1511.67" rx="19.5" ry="19" transform="rotate(-57.3432 493.519 1511.67)" fill="#D9D9D9"/>
<ellipse cx="498.519" cy="1574.67" rx="19.5" ry="19" transform="rotate(-57.3432 498.519 1574.67)" fill="#D9D9D9"/>
<ellipse cx="658.5" cy="2059" rx="19.5" ry="19" fill="#D9D9D9"/>
<ellipse cx="619.5" cy="2116" rx="19.5" ry="19" fill="#D9D9D9"/>
<ellipse cx="577.5" cy="2154" rx="19.5" ry="19" fill="#D9D9D9"/>
<ellipse cx="523.5" cy="2192" rx="19.5" ry="19" fill="#D9D9D9"/>
<ellipse cx="465.5" cy="2224" rx="19.5" ry="19" fill="#D9D9D9"/>
<ellipse cx="401.5" cy="2262" rx="19.5" ry="19" fill="#D9D9D9"/>
<ellipse cx="343.5" cy="2295" rx="19.5" ry="19" fill="#D9D9D9"/>
<ellipse cx="310.5" cy="2359" rx="19.5" ry="19" fill="#D9D9D9"/>
<ellipse cx="304.5" cy="2423" rx="19.5" ry="19" fill="#D9D9D9"/>
<ellipse cx="323.5" cy="2487" rx="19.5" ry="19" fill="#D9D9D9"/>
</svg>
