<svg width="62" height="69" viewBox="0 0 62 69" fill="none" xmlns="http://www.w3.org/2000/svg">
<path d="M49.6543 60.3452C46.8731 60.3452 44.1258 60.4134 41.3447 60.3111C39.988 60.243 39.5471 60.6519 39.3096 62.0148C38.2921 67.5689 32.3567 70.6015 27.337 68.1141C24.7932 66.8534 23.0635 64.8089 22.6565 61.8445C22.4869 60.686 22.0799 60.2771 20.825 60.2771C15.3983 60.3452 9.97157 60.3111 4.54488 60.2771C1.28886 60.2771 0.339188 59.5274 0.0678537 56.3245C-0.203481 53.2919 0.203521 50.2593 2.88295 48.3852C7.22431 45.3526 8.68273 40.8889 9.4289 36.0504C10.1072 31.6208 10.6838 27.1911 11.8709 22.8637C13.6346 16.56 17.4333 12.0963 23.6401 9.81336C24.6576 9.43854 25.0646 9.13188 24.7932 7.80299C24.2166 5.04299 25.0307 2.6578 27.5066 1.02225C29.6433 -0.374791 32.2549 -0.408865 34.3578 0.988172C36.7998 2.62373 37.6816 4.90669 37.2068 7.73484C37.0711 8.48447 36.6302 9.16595 37.8512 9.60891C45.5843 12.3348 49.349 18.1956 50.8753 25.9985C51.7232 30.326 52.0624 34.7556 53.1138 39.0489C54.0296 42.7289 55.6236 45.8637 58.8118 48.1808C62.1018 50.6 62.407 54.1437 61.6269 57.8578C61.3217 59.3571 60.2703 60.2771 58.5744 60.2771C55.5897 60.2771 52.5711 60.2771 49.5864 60.2771C49.6543 60.3111 49.6543 60.3452 49.6543 60.3452ZM30.8983 56.0519C39.0722 56.0519 47.2801 56.0519 55.4541 56.0519C57.7943 56.0519 58.1674 55.5408 57.3873 53.2578C57.1499 52.5763 56.7768 52.0311 56.2002 51.6563C51.2823 48.283 49.3829 43.24 48.4333 37.686C47.6193 32.9156 47.2123 28.043 45.7538 23.3748C43.8545 17.2756 38.8348 13.323 32.6959 12.9822C24.895 12.5734 19.3665 15.6741 16.7549 21.9437C16.0088 23.7156 15.6696 25.6237 15.1948 27.4978C14.0416 32.2682 13.9738 37.2771 12.5153 41.9793C11.3282 45.6934 9.49674 48.9304 6.27464 51.2134C5.86763 51.52 5.46063 51.8267 5.12146 52.2356C4.27354 53.2237 4.10396 54.4845 4.40921 55.6089C4.71446 56.6311 5.90155 56.0519 6.64772 56.0519C14.7538 56.086 22.8261 56.0519 30.8983 56.0519ZM30.7965 64.5023C32.8994 64.5363 34.5274 63.2756 35.104 61.4356C35.3753 60.5837 35.1718 60.3111 34.29 60.3452C32.5263 60.3793 30.7965 60.3111 29.0328 60.3793C28.2867 60.4134 27.2013 59.9023 26.8961 60.686C26.5569 61.5719 27.2692 62.526 27.9475 63.2415C28.7276 64.0934 29.6773 64.6726 30.7965 64.5023ZM31.0679 4.39558C29.8808 4.36151 28.7615 5.34965 28.8972 6.4741C29.0328 7.63262 29.7112 8.48447 30.9661 8.55262C32.221 8.62077 32.9333 7.73484 33.1368 6.61039C33.3403 5.52002 32.221 4.39558 31.0679 4.39558Z" fill="#8EC640"/>
</svg>
