<svg width="29" height="29" viewBox="0 0 29 29" fill="none" xmlns="http://www.w3.org/2000/svg">
<g clip-path="url(#clip0_403_9)">
<path d="M8.20801 16.5484C8.20801 12.7307 8.20801 8.91294 8.20801 5.09522C8.20801 4.11142 8.22269 4.09674 9.17712 4.09674C13.0683 4.09674 16.9594 4.09674 20.8505 4.09674C22.1133 4.09674 23.1852 4.52256 24.0662 5.43294C25.2409 6.63699 26.445 7.84104 27.649 9.01573C28.5594 9.91142 28.9852 10.9686 28.9852 12.2314C28.9705 17.4881 28.9852 22.7448 28.9852 28.0162C28.9852 29 28.9852 29.0147 27.9574 29.0147C21.7169 29.0147 15.4764 29.0147 9.23586 29.0147C8.20801 29.0147 8.20801 29.0147 8.20801 27.9428C8.20801 24.1251 8.20801 20.3367 8.20801 16.5484ZM10.4399 16.5631C10.4399 19.72 10.4399 22.877 10.4399 26.0193C10.4399 26.5185 10.484 26.8562 11.13 26.8562C16.1371 26.8416 21.1589 26.8416 26.166 26.8562C26.6799 26.8562 26.8414 26.6653 26.8414 26.1661C26.8267 22.04 26.8414 17.8993 26.8267 13.7732C26.8267 12.8775 26.4597 12.5251 25.5786 12.5251C24.1837 12.5104 22.7888 12.4957 21.3938 12.5251C20.7918 12.5398 20.5569 12.2902 20.5716 11.7028C20.5862 10.4107 20.5862 9.11851 20.5716 7.81168C20.5716 6.53421 20.3072 6.26991 19.0298 6.25522C16.4602 6.25522 13.8905 6.26991 11.3356 6.24054C10.6161 6.22585 10.4252 6.49016 10.4252 7.18029C10.4546 10.3079 10.4399 13.4355 10.4399 16.5631ZM25.3584 10.2785C24.5067 9.42687 23.6551 8.56054 22.8181 7.72358C22.8181 8.34028 22.8181 9.03041 22.8181 9.73522C22.8181 10.1023 22.965 10.2785 23.3321 10.2785C24.0369 10.2785 24.7417 10.2785 25.3584 10.2785Z" fill="#8FC640"/>
<path d="M0 12.3929C0 8.60458 0 4.81623 0 1.01319C0 0.0147073 0 2.37748e-05 1.02785 2.37748e-05C4.84557 2.37748e-05 8.66329 0.0147073 12.481 -0.0146598C13.8319 -0.0293433 14.9625 0.411163 15.8876 1.39496C16.2987 1.85015 16.7539 2.26129 17.1797 2.7018C17.4 2.93673 17.3706 3.09825 17.0182 3.09825C15.5939 3.09825 14.1843 3.09825 12.76 3.09825C12.5691 3.09825 12.4223 3.01015 12.3489 2.84863C12.0258 2.20256 11.4678 2.08509 10.8218 2.08509C8.2081 2.09977 5.57975 2.11445 2.96608 2.08509C2.29063 2.0704 2.08506 2.29066 2.08506 2.9661C2.09975 9.28002 2.09975 15.5939 2.08506 21.9079C2.08506 22.5393 2.26127 22.7889 2.92202 22.7595C4.12608 22.7155 5.31544 22.7595 6.51949 22.7448C7.06278 22.7302 7.28304 22.9504 7.25367 23.479C7.23899 23.7433 7.23899 24.0223 7.23899 24.2866C7.23899 24.6537 7.06278 24.8299 6.6957 24.8299C4.64 24.8299 2.5843 24.8299 0.528608 24.8299C0.0440506 24.8299 0 24.5069 0 24.1251C0 22.7008 0 21.2912 0 19.8669C0 17.3853 0 14.8891 0 12.3929Z" fill="#8FC640"/>
<path d="M5.66779 10.3079C5.71184 10.3079 5.77057 10.3079 5.81462 10.3079C7.31235 10.3079 7.42981 10.4547 7.25361 11.9525C7.19488 12.3195 7.03336 12.4811 6.68095 12.4811C6.02019 12.4811 5.35943 12.4811 4.69867 12.4811C4.3169 12.4811 4.12602 12.3049 4.11133 11.8937C4.09665 9.99954 4.0526 10.3373 5.66779 10.3079Z" fill="#8FC640"/>
<path d="M5.69722 14.4193C5.74127 14.4193 5.8 14.4193 5.84405 14.4193C7.23899 14.4193 7.53266 14.8157 7.22431 16.1813C7.15089 16.4749 6.98937 16.5924 6.71038 16.5924C6.02026 16.6071 5.34481 16.5924 4.65469 16.5924C4.30228 16.5924 4.1114 16.4162 4.1114 16.0491C4.1114 16.0198 4.1114 16.0051 4.1114 15.9757C3.99393 14.4486 4.00861 14.4193 5.69722 14.4193Z" fill="#8FC640"/>
<path d="M5.68255 20.7332C5.6385 20.7332 5.57976 20.7332 5.53571 20.7332C4.03799 20.7332 4.02331 20.7038 4.11141 19.2208C4.14077 18.7656 4.31698 18.5453 4.77217 18.5453C5.21267 18.5453 5.65318 18.5453 6.09369 18.5453C7.239 18.5453 7.239 18.5453 7.239 19.6613C7.239 20.7332 7.239 20.7332 5.68255 20.7332Z" fill="#8FC640"/>
<path d="M5.66778 8.28154C5.4769 8.28154 5.27133 8.28154 5.08044 8.28154C4.14069 8.26685 4.11133 8.25217 4.11133 7.28305C4.11133 6.19647 4.11133 6.19647 5.21259 6.19647C5.46221 6.19647 5.69715 6.19647 5.94677 6.19647C7.20956 6.19647 7.54728 6.65166 7.22424 7.89976C7.15082 8.20812 6.95994 8.28154 6.69563 8.28154C6.35791 8.28154 6.00551 8.26685 5.66778 8.28154Z" fill="#8FC640"/>
<path d="M18.6482 14.4046C20.4543 14.4046 22.2603 14.4193 24.0664 14.4046C24.6538 14.4046 24.8887 14.5955 24.8887 15.2122C24.8887 16.6365 24.9034 16.6365 23.4497 16.6365C20.0725 16.6365 16.71 16.6365 13.3327 16.6365C12.3636 16.6365 12.3489 16.6071 12.3343 15.6527C12.3196 14.4046 12.3196 14.4046 13.5824 14.4046C15.271 14.4046 16.9596 14.4046 18.6482 14.4046Z" fill="#8FC640"/>
<path d="M18.604 20.7626C16.7979 20.7626 14.9919 20.7479 13.1858 20.7772C12.5397 20.7919 12.2754 20.557 12.3341 19.9256C12.3488 19.7054 12.3488 19.4851 12.3341 19.2648C12.3048 18.7803 12.5103 18.5307 13.0096 18.5454C16.7539 18.5454 20.4835 18.5454 24.2278 18.5454C24.683 18.5454 24.8592 18.7509 24.8739 19.2061C24.9326 20.7626 24.9473 20.7626 23.4349 20.7626C21.8197 20.7626 20.2192 20.7626 18.604 20.7626Z" fill="#8FC640"/>
<path d="M18.648 24.8886C16.8419 24.8886 15.0212 24.8593 13.2151 24.9033C12.5396 24.918 12.2607 24.6978 12.3194 24.0223C12.3488 23.8021 12.3341 23.5818 12.3194 23.3616C12.3194 22.9504 12.4809 22.7302 12.9361 22.7302C16.7098 22.7302 20.4688 22.7302 24.2424 22.7302C24.6683 22.7302 24.8885 22.9064 24.8591 23.3469C24.8591 23.3909 24.8591 23.4497 24.8591 23.4937C24.9032 24.8886 24.9032 24.8886 23.4936 24.8886C21.8784 24.8886 20.2632 24.8886 18.648 24.8886Z" fill="#8FC640"/>
<path d="M15.5791 10.2785C16.3867 10.2785 17.1943 10.2932 18.0019 10.2785C18.5012 10.2638 18.6774 10.4841 18.692 10.9833C18.7508 12.5104 18.7655 12.5104 17.209 12.5104C15.8434 12.5104 14.4779 12.4957 13.1123 12.5104C12.5543 12.5104 12.29 12.2902 12.3341 11.7175C12.3488 11.6147 12.3341 11.5266 12.3341 11.4238C12.3341 10.2785 12.3341 10.2785 13.45 10.2785C14.1695 10.2785 14.8743 10.2785 15.5791 10.2785Z" fill="#8FC640"/>
</g>
<defs>
<clipPath id="clip0_403_9">
<rect width="29" height="29" fill="white"/>
</clipPath>
</defs>
</svg>
