<svg width="25" height="22" viewBox="0 0 25 22" fill="none" xmlns="http://www.w3.org/2000/svg">
<path d="M0.988024 0C6.55883 0 12.1296 0 17.7004 0C18.0297 0.19129 18.3316 0.409906 18.606 0.683177C20.4721 2.54142 22.3107 4.42699 24.2043 6.2579C24.7531 6.77711 24.9727 7.35098 24.9727 8.08881C24.9727 12.3245 24.9452 16.5602 24.9727 20.8232C24.9727 21.3971 24.808 21.5337 24.2592 21.5337C16.4106 21.5064 8.56212 21.5064 0.686158 21.5337C0.13731 21.5337 -0.0273438 21.3971 -0.0273438 20.8232C9.86223e-05 14.538 9.86223e-05 8.25278 -0.0273438 1.99488C9.86223e-05 1.12041 0.24708 0.437233 0.988024 0ZM20.2251 7.73356C21.0484 7.73356 21.8991 7.73356 22.7224 7.73356C22.9419 7.73356 23.2438 7.81554 23.3536 7.54227C23.4633 7.269 23.1889 7.13237 23.0242 6.9684C21.3503 5.27413 19.6488 3.60717 17.9749 1.9129C17.8102 1.74893 17.673 1.47566 17.3986 1.6123C17.1241 1.72161 17.179 1.99488 17.179 2.24082C17.179 3.88044 17.2065 5.52007 17.179 7.13237C17.179 7.62425 17.3437 7.73356 17.8102 7.73356C18.606 7.70623 19.4019 7.73356 20.2251 7.73356ZM8.26025 9.40051C7.49187 9.40051 6.77836 10.0564 6.72348 10.8762C6.69604 11.532 6.69604 12.2152 6.69604 12.8711C6.69604 13.8548 6.4765 14.1281 5.54346 14.374C5.21415 14.456 5.02205 14.62 5.02205 14.9479C5.02205 15.2758 5.26903 15.4398 5.5709 15.5218C6.53138 15.7677 6.69604 15.9863 6.69604 16.9974C6.69604 17.6533 6.69604 18.3365 6.72348 18.9923C6.77836 19.7848 7.43698 20.4133 8.20537 20.468C8.56212 20.4953 8.83654 20.3587 8.89143 20.0034C8.94631 19.7028 8.83654 19.4295 8.47979 19.3749C7.9035 19.2929 7.84862 18.9103 7.84862 18.4458C7.84862 17.6806 8.06816 16.8608 7.73885 16.205C7.29977 15.3032 7.32721 14.5653 7.73885 13.6635C8.06816 12.9804 7.82117 12.1605 7.84862 11.4227C7.84862 10.9582 7.84862 10.5756 8.47979 10.5209C8.78166 10.4936 8.94631 10.2203 8.89143 9.8924C8.8091 9.48249 8.58956 9.37319 8.26025 9.40051ZM16.1911 9.40051C15.8618 9.37319 15.6148 9.48249 15.5599 9.83775C15.505 10.193 15.6971 10.4663 16.0264 10.5209C16.5478 10.5756 16.6302 10.9035 16.6302 11.3134C16.6302 11.9693 16.6302 12.6251 16.6302 13.3083C16.6302 13.9368 17.179 14.4014 17.2339 14.9206C17.2888 15.4125 16.6302 15.9317 16.6302 16.5875C16.6302 17.2434 16.6302 17.8992 16.6302 18.5824C16.6302 19.0196 16.5204 19.3202 16.0264 19.4022C15.5874 19.4569 15.4776 19.7575 15.5874 20.1127C15.6971 20.4406 15.999 20.55 16.3283 20.468C17.0693 20.3313 17.6455 19.8121 17.7279 19.047C17.8102 18.3365 17.7828 17.626 17.7828 16.9155C17.8102 15.9317 17.92 15.7677 18.8805 15.5218C19.1823 15.4398 19.4019 15.3032 19.4019 14.9479C19.4019 14.62 19.2098 14.456 18.8805 14.4014C17.9474 14.1828 17.7828 13.9368 17.7553 12.9804C17.7279 12.2425 17.7553 11.5047 17.673 10.7942C17.6181 9.97438 16.9046 9.37319 16.1911 9.40051ZM11.6905 17.3254C11.6905 17.626 11.6631 17.9266 11.6905 18.2545C11.718 18.5551 11.8826 18.7464 12.1845 18.7737C12.4864 18.801 12.7059 18.6644 12.7608 18.3638C12.8706 17.7079 12.898 17.0521 12.7608 16.3962C12.7059 16.123 12.4864 15.9863 12.2394 16.0137C11.965 16.0137 11.7454 16.1776 11.718 16.5056C11.6631 16.7515 11.6905 17.0521 11.6905 17.3254ZM13.0627 13.0077C13.0078 12.4611 12.7059 12.1332 12.212 12.1332C11.7454 12.1605 11.4161 12.4338 11.4161 12.953C11.4161 13.4996 11.718 13.8002 12.2668 13.7728C12.7608 13.7728 13.0078 13.4722 13.0627 13.0077Z" fill="#454545"/>
</svg>
