<svg width="70" height="89" viewBox="0 0 70 89" fill="none" xmlns="http://www.w3.org/2000/svg">
<g clip-path="url(#clip0_483_65)">
<path d="M34.8241 89.0001C23.9196 89.0001 13.3668 89.0001 2.4623 89.0001C1.40702 89.0001 0.351749 89.3664 -1.0252e-05 87.5351C-1.05529 70.6874 7.03517 56.4034 21.1055 50.1771C22.1608 49.8108 23.2161 49.8108 24.2713 50.1771C31.3065 53.1071 38.3417 53.1071 45.0251 50.1771C46.0804 49.8108 47.1357 49.4446 48.1909 50.1771C62.2613 56.4034 70.3518 70.3211 69.2965 87.5351C69.2965 89.3664 67.8894 89.0001 66.8342 89.0001C56.6332 89.0001 45.7286 89.0001 34.8241 89.0001Z" fill="#8EC640"/>
<path d="M34.8241 46.8807C22.1608 46.8807 12.3116 36.2593 12.3116 23.0741C12.6633 10.6214 22.8643 0 35.1759 0C47.8392 0 57.6884 10.6214 57.6884 24.1728C57.6884 36.9918 47.4874 47.2469 34.8241 46.8807Z" fill="#8EC640"/>
</g>
<defs>
<clipPath id="clip0_483_65">
<rect width="70" height="89" fill="white"/>
</clipPath>
</defs>
</svg>
